<svg height="511.99996pt" viewBox="1 1 511.99996 511.99996" width="511.99996pt" xmlns="http://www.w3.org/2000/svg"><path d="m46.546875 0h418.90625c25.707031 0 46.546875 20.839844 46.546875 46.546875v418.90625c0 25.707031-20.839844 46.546875-46.546875 46.546875h-418.90625c-25.707031 0-46.546875-20.839844-46.546875-46.546875v-418.90625c0-25.707031 20.839844-46.546875 46.546875-46.546875zm0 0" fill="#432542"/><path d="m46.546875 69.816406h418.90625c12.855469 0 23.273437 10.421875 23.273437 23.273438 0 12.855468-10.417968 23.273437-23.273437 23.273437h-418.90625c-12.855469 0-23.273437-10.417969-23.273437-23.273437 0-12.851563 10.417968-23.273438 23.273437-23.273438zm0 0" fill="#230022"/><path d="m500.363281 162.910156c-6.425781 0-11.636719 5.207032-11.636719 11.636719v290.90625c0 12.855469-10.417968 23.273437-23.273437 23.273437h-128c-6.425781 0-11.632813 5.210938-11.632813 11.636719s5.207032 11.636719 11.632813 11.636719h128c25.707031 0 46.546875-20.839844 46.546875-46.546875v-290.90625c0-6.429687-5.210938-11.636719-11.636719-11.636719zm0 0" fill="#351534"/><path d="m34.910156 209.453125c6.425782 0 11.636719 5.210937 11.636719 11.636719v186.183594c0 6.425781-5.210937 11.636718-11.636719 11.636718-6.429687 0-11.636718-5.210937-11.636718-11.636718v-186.183594c0-6.425782 5.207031-11.636719 11.636718-11.636719zm0 0" fill="#593558"/><g fill="#daefe6"><path d="m162.886719 395.636719c-5.027344.007812-9.921875-1.628907-13.933594-4.660157l-93.089844-69.816406c-10.28125-7.695312-12.375-22.265625-4.683593-32.546875 1.332031-1.777343 2.90625-3.351562 4.683593-4.683593l93.089844-69.816407c10.277344-7.710937 24.859375-5.628906 32.570313 4.644531 7.710937 10.277344 5.632812 24.859376-4.644532 32.570313-.003906.003906-.011718.007813-.015625.011719l-68.25 51.207031 68.25 51.203125c10.28125 7.707031 12.371094 22.289062 4.664063 32.574219-4.398438 5.867187-11.308594 9.320312-18.640625 9.3125zm0 0"/><path d="m349.113281 395.636719c-12.851562.011719-23.277343-10.394531-23.289062-23.246094-.007813-7.332031 3.445312-14.242187 9.3125-18.640625l68.25-51.203125-68.25-51.207031c-10.28125-7.707032-12.367188-22.285156-4.660157-32.566406 7.707032-10.28125 22.289063-12.367188 32.570313-4.660157l93.089844 69.816407c10.277343 7.695312 12.375 22.265624 4.679687 32.546874-1.328125 1.777344-2.90625 3.351563-4.679687 4.683594l-93.089844 69.816406c-4.011719 3.03125-8.90625 4.667969-13.933594 4.660157zm0 0"/><path d="m232.75 418.910156c-12.847656.011719-23.277344-10.394531-23.289062-23.246094 0-1.914062.234374-3.820312.699218-5.675781l46.542969-186.179687c3.121094-12.464844 15.753906-20.042969 28.21875-16.921875 12.460937 3.117187 20.039063 15.75 16.917969 28.214843l-46.542969 186.183594c-2.585937 10.351563-11.878906 17.617188-22.546875 17.625zm0 0"/></g><path d="m46.546875 0h418.90625c25.707031 0 46.546875 20.839844 46.546875 46.546875v46.542969h-512v-46.542969c0-25.707031 20.839844-46.546875 46.546875-46.546875zm0 0" fill="#c0e6d9"/><path d="m69.816406 0h372.363282c12.855468 0 23.273437 10.417969 23.273437 23.273438 0 12.851562-10.417969 23.273437-23.273437 23.273437h-372.363282c-12.851562 0-23.269531-10.421875-23.269531-23.273437 0-12.855469 10.417969-23.273438 23.269531-23.273438zm0 0" fill="#f2f9f6"/><path d="m34.910156 69.816406h442.179688c6.425781 0 11.636718 5.210938 11.636718 11.636719s-5.210937 11.636719-11.636718 11.636719h-442.179688c-6.429687 0-11.636718-5.210938-11.636718-11.636719s5.207031-11.636719 11.636718-11.636719zm0 0" fill="#70c5aa"/><path d="m69.820312 46.546875c0 12.851563-10.421874 23.273437-23.273437 23.273437-12.855469 0-23.273437-10.421874-23.273437-23.273437 0-12.855469 10.417968-23.273437 23.273437-23.273437 12.851563 0 23.273437 10.417968 23.273437 23.273437zm0 0" fill="#f0a319"/><path d="m139.636719 46.546875c0 12.851563-10.417969 23.273437-23.273438 23.273437-12.851562 0-23.273437-10.421874-23.273437-23.273437 0-12.855469 10.421875-23.273437 23.273437-23.273437 12.855469 0 23.273438 10.417968 23.273438 23.273437zm0 0" fill="#e08995"/><path d="m209.453125 46.546875c0 12.851563-10.417969 23.273437-23.273437 23.273437-12.851563 0-23.269532-10.421874-23.269532-23.273437 0-12.855469 10.417969-23.273437 23.269532-23.273437 12.855468 0 23.273437 10.417968 23.273437 23.273437zm0 0" fill="#b13b39"/></svg>