<svg viewBox="0 0 464 464" xmlns="http://www.w3.org/2000/svg"><path d="m104 8h168.65625c4.417969 0 8 3.582031 8 8v24h-176.65625zm0 0" fill="#dbc69b"/><path d="m384 40h-232c-3.03125 0-5.796875-1.714844-7.152344-4.425781l-15.582031-31.148438c-1.355469-2.710937-4.125-4.425781-7.152344-4.425781h-114.113281c-4.417969 0-8 3.582031-8 8v280c0 4.417969 3.582031 8 8 8h376c4.417969 0 8-3.582031 8-8v-240c0-4.417969-3.582031-8-8-8zm0 0" fill="#f7dfaf"/><path d="m336 440c0 13.253906 10.746094 24 24 24s24-10.746094 24-24v-160h-48zm0 0" fill="#8a8a8a"/><path d="m157.753906 82.304688c-29.371094-11.753907-62.136718-11.753907-91.507812 0-16.011719 6.40625-28.046875 20.015624-32.445313 36.691406-4.398437 16.679687-.640625 34.453125 10.136719 47.925781l20.0625 25.078125v24h96v-24l20.0625-25.078125c10.777344-13.472656 14.535156-31.246094 10.136719-47.925781-4.398438-16.675782-16.433594-30.285156-32.445313-36.691406zm0 0" fill="#8a8a8a"/><path d="m328 312h64v32h-64zm0 0" fill="#bfbfbf"/><path d="m146.34375 160 4.710938-5.214844c10.472656-11.609375 13.890624-27.953125 8.945312-42.785156l-32 16v8c0 10.128906 8.214844 24 18.34375 24zm0 0" fill="#f9e369"/><path d="m77.65625 160c10.128906 0 18.34375-13.871094 18.34375-24v-8l-32-16c-4.945312 14.832031-1.527344 31.175781 8.945312 42.785156zm0 0" fill="#f9e369"/><path d="m88 192h16v24h-16zm0 0" fill="#bfbfbf"/><path d="m120 192h16v24h-16zm0 0" fill="#bfbfbf"/><path d="m360 88c-57.4375 0-104 46.5625-104 104s46.5625 104 104 104 104-46.5625 104-104-46.5625-104-104-104zm0 0" fill="#7cd7fc"/><path d="m432 192c0 39.765625-32.234375 72-72 72s-72-32.234375-72-72 32.234375-72 72-72 72 32.234375 72 72zm0 0" fill="#dceef7"/></svg>